<mxfile host="app.diagrams.net" modified="2023-07-15T17:02:04.673Z" agent="Mozilla/5.0 (Windows NT 10.0; Win64; x64) AppleWebKit/537.36 (KHTML, like Gecko) Chrome/114.0.0.0 Safari/537.36" etag="kCFOIa2rJ3Fh0G8Mr5sd" version="21.6.2" type="github">
  <diagram name="Página-1" id="z2RBaPFb8gWs7JQOrC-Q">
    <mxGraphModel dx="838" dy="649" grid="1" gridSize="10" guides="1" tooltips="1" connect="1" arrows="1" fold="1" page="1" pageScale="1" pageWidth="827" pageHeight="1169" math="0" shadow="0">
      <root>
        <mxCell id="0" />
        <mxCell id="1" parent="0" />
        <mxCell id="3eWS1h0i8T7XQ5B6YKja-1" value="&lt;h1&gt;Generative AI e ChatGPT&lt;/h1&gt;&lt;p&gt;Entre a &quot;&lt;b&gt;mágica&lt;/b&gt;&quot; e a realidade&lt;/p&gt;&lt;p style=&quot;text-align: justify;&quot;&gt;&lt;b&gt;Cezar Taurion e o Chat GPT&lt;/b&gt;&lt;/p&gt;" style="text;html=1;strokeColor=none;fillColor=none;spacing=5;spacingTop=-20;whiteSpace=wrap;overflow=hidden;rounded=0;" vertex="1" parent="1">
          <mxGeometry x="20" y="30" width="770" height="160" as="geometry" />
        </mxCell>
      </root>
    </mxGraphModel>
  </diagram>
</mxfile>
